# xmcd
#
# Track frame offsets: 
#        150
#        19964
#        39210
#        59022
#        76810
#        94160
#        113117
#        132861
#        152853
#
# Disc length: 2356 seconds
#
# Revision: 0
# Processed by: cddbd v1.5.2PL0 Copyright (c) Steve Scherf et al.
# Submitted via: ExactAudioCopyFreeDBPlugin 1.0
#
DISCID=6d093209
DTITLE=Xavier Naidoo - Allein mit - Flügel Live @ Neil's House
DYEAR=2016
DGENRE=Blues
TTITLE0=Renaissance der Liebe
TTITLE1=Das lass ich nicht zu
TTITLE2=Der Fels
TTITLE3=Ich will leben
TTITLE4=Kopf feat. Moses Pelham
TTITLE5=Frei
TTITLE6=Das Prinzip
TTITLE7=Latein
TTITLE8=Wiedersehen
EXTD=
EXTT0=
EXTT1=
EXTT2=
EXTT3=
EXTT4=
EXTT5=
EXTT6=
EXTT7=
EXTT8=
PLAYORDER=
